<svg width="24" height="25" viewBox="0 0 24 25" fill="none" xmlns="http://www.w3.org/2000/svg">
<path d="M19.298 10.066H4.70199C4.40665 10.0666 4.11526 10.1338 3.8495 10.2627C3.58373 10.3915 3.35044 10.5786 3.16699 10.81C2.98475 11.0412 2.85739 11.3107 2.79451 11.5982C2.73163 11.8858 2.73487 12.1839 2.80399 12.47L4.36899 18.878C4.59517 19.7038 5.08721 20.432 5.76899 20.95C6.45099 21.469 7.28599 21.75 8.14499 21.75H15.853C16.712 21.75 17.547 21.469 18.229 20.95C18.9108 20.432 19.4028 19.7038 19.629 18.878L21.194 12.471C21.2993 12.0391 21.2531 11.584 21.0631 11.1821C20.873 10.7802 20.5507 10.4557 20.15 10.263C19.8838 10.1338 19.5919 10.0665 19.296 10.066M8.08699 13.96V17.855M12 13.96V17.855M15.913 13.96V17.855M18.848 10.066C18.8476 9.17005 18.6702 8.28299 18.326 7.45582C17.9817 6.62864 17.4774 5.87765 16.842 5.246C15.5552 3.96687 13.8144 3.24924 12 3.25C10.1856 3.24924 8.44475 3.96687 7.15799 5.246C6.52275 5.87773 6.01861 6.62876 5.67452 7.45593C5.33044 8.2831 5.1532 9.17012 5.15299 10.066" stroke="black" stroke-width="1.5" stroke-linecap="round" stroke-linejoin="round"/>
</svg>
